/* XPM */
static char * info_xpm[] = {
"48 48 520 2",
"  	c None",
". 	c #0057AD",
"+ 	c #0058AF",
"@ 	c #0058B0",
"# 	c #0059B1",
"$ 	c #0059B0",
"% 	c #005AB2",
"& 	c #0058AD",
"* 	c #0057AE",
"= 	c #0057AF",
"- 	c #0059B2",
"; 	c #005AB3",
"> 	c #005BB4",
", 	c #005BB5",
"' 	c #005CB6",
") 	c #0C61B5",
"! 	c #357CC2",
"~ 	c #4A8AC8",
"{ 	c #5A94CE",
"] 	c #6A9FD3",
"^ 	c #5A95CE",
"/ 	c #4A8BCA",
"( 	c #357EC4",
"_ 	c #0C64B8",
": 	c #005DB6",
"< 	c #005DB7",
"[ 	c #005CB9",
"} 	c #1164B7",
"| 	c #518ECA",
"1 	c #7EACD8",
"2 	c #9BBEE1",
"3 	c #9CBFE1",
"4 	c #9CBFE2",
"5 	c #9CC0E2",
"6 	c #9CC0E3",
"7 	c #9BBFE3",
"8 	c #7EADDB",
"9 	c #5191CF",
"0 	c #1169BE",
"a 	c #005EB9",
"b 	c #005FBA",
"c 	c #005AB1",
"d 	c #1668B9",
"e 	c #5C96CE",
"f 	c #91B8DE",
"g 	c #94BAE0",
"h 	c #94BBE0",
"i 	c #93BBE0",
"j 	c #88B3DD",
"k 	c #87B2DD",
"l 	c #93BBE1",
"m 	c #94BBE1",
"n 	c #94BBE2",
"o 	c #94BCE2",
"p 	c #91BAE1",
"q 	c #5C99D4",
"r 	c #166EC1",
"s 	c #0060BC",
"t 	c #0061BC",
"u 	c #0061BE",
"v 	c #015BB3",
"w 	c #4084C7",
"x 	c #88B2DC",
"y 	c #8CB5DE",
"z 	c #8CB6DE",
"A 	c #8AB5DE",
"B 	c #679DD2",
"C 	c #6B9ED2",
"D 	c #92B8DE",
"E 	c #97BBDF",
"F 	c #6FA2D4",
"G 	c #639AD1",
"H 	c #89B5DF",
"I 	c #8CB7E0",
"J 	c #8CB7E1",
"K 	c #8CB8E1",
"L 	c #88B5E0",
"M 	c #4089CE",
"N 	c #0163BE",
"O 	c #0062BF",
"P 	c #0D63B8",
"Q 	c #649CD2",
"R 	c #84B0DB",
"S 	c #84B0DC",
"T 	c #84B1DC",
"U 	c #84B1DD",
"V 	c #83B1DD",
"W 	c #5993CD",
"X 	c #BAD2EA",
"Y 	c #FFFFFF",
"Z 	c #C6DAEE",
"` 	c #5A94CF",
" .	c #81B1DE",
"..	c #84B3DF",
"+.	c #84B3E0",
"@.	c #84B4E0",
"#.	c #64A0D9",
"$.	c #0D6BC3",
"%.	c #0064C1",
"&.	c #005BB6",
"*.	c #005CB5",
"=.	c #0E65BA",
"-.	c #6AA0D4",
";.	c #7CACDA",
">.	c #7CACDB",
",.	c #7CADDC",
"'.	c #5D98D1",
").	c #B3CEE8",
"!.	c #5794D0",
"~.	c #7CAEDE",
"{.	c #7CAFDF",
"].	c #7CAFE0",
"^.	c #6AA4DB",
"/.	c #0E6DC6",
"(.	c #0065C3",
"_.	c #0065C4",
":.	c #0F67BB",
"<.	c #669ED4",
"[.	c #74A7D8",
"}.	c #74A7D9",
"|.	c #74A8D9",
"1.	c #74A8DA",
"2.	c #5893CE",
"3.	c #699ED3",
"4.	c #72A9DD",
"5.	c #74ABDD",
"6.	c #74ABDE",
"7.	c #74ACDF",
"8.	c #66A3DC",
"9.	c #0F6FC8",
"0.	c #0067C5",
"a.	c #0067C6",
"b.	c #005EB8",
"c.	c #0360B9",
"d.	c #5996D1",
"e.	c #6CA2D7",
"f.	c #6CA3D7",
"g.	c #6CA3D8",
"h.	c #6CA4D9",
"i.	c #669FD7",
"j.	c #7BAAD8",
"k.	c #93BAE0",
"l.	c #619DD8",
"m.	c #6CA6DC",
"n.	c #6CA7DD",
"o.	c #6CA7DE",
"p.	c #599CDB",
"q.	c #036AC8",
"r.	c #0068C8",
"s.	c #3B84CA",
"t.	c #649ED6",
"u.	c #649FD6",
"v.	c #649FD7",
"w.	c #64A0D7",
"x.	c #5F9CD6",
"y.	c #76A7D7",
"z.	c #8EB7DF",
"A.	c #5A9AD7",
"B.	c #64A2DC",
"C.	c #64A3DC",
"D.	c #64A3DD",
"E.	c #64A3DE",
"F.	c #64A4DE",
"G.	c #3B8CD5",
"H.	c #0069C9",
"I.	c #006ACA",
"J.	c #0060BB",
"K.	c #1A70C2",
"L.	c #5C9AD4",
"M.	c #5C9AD5",
"N.	c #5C9BD5",
"O.	c #5C9BD6",
"P.	c #5C9BD7",
"Q.	c #4B8BCB",
"R.	c #FEFFFF",
"S.	c #5C97D1",
"T.	c #5B9DDA",
"U.	c #5C9EDB",
"V.	c #5C9EDC",
"W.	c #5C9FDC",
"X.	c #5CA0DD",
"Y.	c #5CA0DE",
"Z.	c #1A79D0",
"`.	c #006BCC",
" +	c #005FBC",
".+	c #0061BD",
"++	c #448BCF",
"@+	c #5495D3",
"#+	c #5496D3",
"$+	c #5496D4",
"%+	c #5496D5",
"&+	c #5497D5",
"*+	c #5497D6",
"=+	c #5498D6",
"-+	c #A3C4E5",
";+	c #B7D2EB",
">+	c #3C87CD",
",+	c #549ADA",
"'+	c #549ADB",
")+	c #549BDB",
"!+	c #549BDC",
"~+	c #549CDC",
"{+	c #549CDD",
"]+	c #4493DA",
"^+	c #006CCD",
"/+	c #006CCE",
"(+	c #0061BF",
"_+	c #0062BE",
":+	c #1871C4",
"<+	c #4C91D2",
"[+	c #4C91D3",
"}+	c #4C92D3",
"|+	c #4C92D4",
"1+	c #4C93D4",
"2+	c #4C93D5",
"3+	c #4C94D6",
"4+	c #3681C9",
"5+	c #A6C6E6",
"6+	c #B3CFEA",
"7+	c #3984CA",
"8+	c #4B96D9",
"9+	c #4C96D9",
"0+	c #4C96DA",
"a+	c #4C97DA",
"b+	c #4C97DB",
"c+	c #4C98DC",
"d+	c #4C98DD",
"e+	c #4C99DD",
"f+	c #187BD4",
"g+	c #006ED0",
"h+	c #006ECF",
"i+	c #0063BF",
"j+	c #0063C0",
"k+	c #3684CD",
"l+	c #458ED2",
"m+	c #458ED3",
"n+	c #458FD3",
"o+	c #458FD4",
"p+	c #458FD5",
"q+	c #4590D5",
"r+	c #4491D5",
"s+	c #3482CC",
"t+	c #458ACD",
"u+	c #72A6D9",
"v+	c #77A9DA",
"w+	c #4B8ECE",
"x+	c #3282CD",
"y+	c #4492D8",
"z+	c #4592D9",
"A+	c #4593D9",
"B+	c #4593DA",
"C+	c #4594DB",
"D+	c #4595DB",
"E+	c #4595DC",
"F+	c #4595DD",
"G+	c #368DDB",
"H+	c #006FD1",
"I+	c #006FD2",
"J+	c #0668C3",
"K+	c #3D89D1",
"L+	c #3D8AD1",
"M+	c #3D8BD2",
"N+	c #3D8BD3",
"O+	c #3D8BD4",
"P+	c #3D8CD4",
"Q+	c #3D8CD5",
"R+	c #3D8DD5",
"S+	c #3D8DD6",
"T+	c #3D8ED7",
"U+	c #398BD5",
"V+	c #398AD5",
"W+	c #3D8ED8",
"X+	c #3D8FD9",
"Y+	c #3D8FDA",
"Z+	c #3D90DA",
"`+	c #3D91DB",
" @	c #3D91DC",
".@	c #3D91DD",
"+@	c #3D92DE",
"@@	c #0673D4",
"#@	c #0070D4",
"$@	c #1471C8",
"%@	c #3586D0",
"&@	c #3586D1",
"*@	c #3587D1",
"=@	c #3587D2",
"-@	c #3587D3",
";@	c #3588D4",
">@	c #3589D5",
",@	c #3589D6",
"'@	c #358AD6",
")@	c #358AD7",
"!@	c #358BD7",
"~@	c #358BD8",
"{@	c #358BD9",
"]@	c #358CDA",
"^@	c #358CDB",
"/@	c #358DDB",
"(@	c #358EDB",
"_@	c #358EDC",
":@	c #358EDD",
"<@	c #358FDD",
"[@	c #147CD8",
"}@	c #0071D5",
"|@	c #0066C4",
"1@	c #0066C5",
"2@	c #1271C9",
"3@	c #2C81D0",
"4@	c #2D82D0",
"5@	c #2D83D1",
"6@	c #2D83D2",
"7@	c #2D83D3",
"8@	c #2D84D3",
"9@	c #277DCF",
"0@	c #1C73C6",
"a@	c #1C73C7",
"b@	c #1C74C7",
"c@	c #1C74C8",
"d@	c #2781D3",
"e@	c #2D88D8",
"f@	c #2D88D9",
"g@	c #2D88DA",
"h@	c #2D89DB",
"i@	c #2D89DC",
"j@	c #2D8ADC",
"k@	c #2D8BDD",
"l@	c #2C8ADD",
"m@	c #127CDA",
"n@	c #0073D7",
"o@	c #0073D9",
"p@	c #0068C7",
"q@	c #086DC9",
"r@	c #207BCF",
"s@	c #257FD0",
"t@	c #257FD1",
"u@	c #2580D2",
"v@	c #2580D3",
"w@	c #1770C6",
"x@	c #1772C9",
"y@	c #2584D9",
"z@	c #2585D9",
"A@	c #2585DA",
"B@	c #2586DA",
"C@	c #2586DB",
"D@	c #2586DC",
"E@	c #2587DD",
"F@	c #2085DC",
"G@	c #0877D9",
"H@	c #0074D8",
"I@	c #0074D9",
"J@	c #0069C8",
"K@	c #026BCA",
"L@	c #1275CE",
"M@	c #1C7AD0",
"N@	c #1D7BD1",
"O@	c #1D7CD1",
"P@	c #1D7CD2",
"Q@	c #1D7DD3",
"R@	c #1D7DD4",
"S@	c #126FC6",
"T@	c #1270C9",
"U@	c #1D80D9",
"V@	c #1D81D9",
"W@	c #1D81DA",
"X@	c #1D82DA",
"Y@	c #1D82DB",
"Z@	c #1D83DC",
"`@	c #1C82DC",
" #	c #127EDC",
".#	c #0275D9",
"+#	c #0074DA",
"@#	c #0075DA",
"##	c #0075DB",
"$#	c #006ACB",
"%#	c #006BCB",
"&#	c #026CCC",
"*#	c #0A72CF",
"=#	c #1377D1",
"-#	c #1578D2",
";#	c #1579D2",
">#	c #1579D3",
",#	c #157AD4",
"'#	c #0D6CC6",
")#	c #0D6EC9",
"!#	c #157DD8",
"~#	c #157ED9",
"{#	c #157EDA",
"]#	c #157FDA",
"^#	c #157FDB",
"/#	c #157FDC",
"(#	c #137EDC",
"_#	c #0A79DB",
":#	c #0276DA",
"<#	c #0076DB",
"[#	c #0076DC",
"}#	c #0077DD",
"|#	c #006DCE",
"1#	c #006DCF",
"2#	c #046FD0",
"3#	c #0973D2",
"4#	c #0B74D2",
"5#	c #0D75D3",
"6#	c #0D76D3",
"7#	c #0B71CF",
"8#	c #086AC6",
"9#	c #086AC7",
"0#	c #0767C3",
"a#	c #086BC9",
"b#	c #0D7AD9",
"c#	c #0D7ADA",
"d#	c #0D7BDA",
"e#	c #0D7BDB",
"f#	c #0B7ADB",
"g#	c #097ADB",
"h#	c #0477DB",
"i#	c #0076DD",
"j#	c #0077DE",
"k#	c #0078DF",
"l#	c #006DCD",
"m#	c #006ED1",
"n#	c #0171D3",
"o#	c #0271D3",
"p#	c #0271D4",
"q#	c #0373D5",
"r#	c #0473D6",
"s#	c #0268C7",
"t#	c #026AC9",
"u#	c #0476DA",
"v#	c #0376D9",
"w#	c #0275DA",
"x#	c #0176DB",
"y#	c #0079E0",
"z#	c #0070D3",
"A#	c #0071D4",
"B#	c #0072D5",
"C#	c #0072D6",
"D#	c #0067C8",
"E#	c #0069CA",
"F#	c #0078DE",
"G#	c #0079E1",
"H#	c #007AE1",
"I#	c #007AE2",
"J#	c #0070D2",
"K#	c #0072D7",
"L#	c #0073D8",
"M#	c #0068C9",
"N#	c #0078E0",
"O#	c #007AE3",
"P#	c #007BE3",
"Q#	c #007BE4",
"R#	c #006ACC",
"S#	c #007CE4",
"T#	c #007CE5",
"U#	c #006BCD",
"V#	c #007CE6",
"W#	c #007DE6",
"X#	c #007DE7",
"Y#	c #007EE7",
"Z#	c #007EE8",
"`#	c #007FE9",
" $	c #0074D7",
".$	c #006BCE",
"+$	c #006DD0",
"@$	c #007FEA",
"#$	c #0080EA",
"$$	c #0080EB",
"%$	c #006DD1",
"&$	c #007EE9",
"*$	c #0081EC",
"=$	c #0080EC",
"-$	c #006FD3",
";$	c #0076DE",
">$	c #0070D5",
",$	c #0082EC",
"'$	c #0170D3",
")$	c #0774D6",
"!$	c #0282EC",
"~$	c #0884EB",
"{$	c #0B75D5",
"]$	c #1179D6",
"^$	c #128AED",
"/$	c #0885ED",
"($	c #0080E9",
"_$	c #0381EB",
":$	c #0E88ED",
"<$	c #1585E5",
"[$	c #167CD7",
"}$	c #1D7FD8",
"|$	c #2483D8",
"1$	c #2B86D8",
"2$	c #3289D9",
"3$	c #388CDA",
"4$	c #3C8EDA",
"5$	c #1F8AE6",
"6$	c #198DEE",
"7$	c #0B86ED",
"8$	c #168CEE",
"9$	c #2091EE",
"0$	c #2A96EF",
"a$	c #349BF0",
"b$	c #3D9FF1",
"c$	c #45A3F1",
"d$	c #4BA6F2",
"e$	c #4EA8F2",
"f$	c #0583EC",
"g$	c #1089ED",
"h$	c #2191EE",
"i$	c #2794EF",
"j$	c #2C97EF",
"k$	c #2F98F0",
"l$	c #3099F0",
"m$	c #188DEE",
"n$	c #0A86ED",
"o$	c #0181EC",
"p$	c #0382EC",
"q$	c #0684EC",
"r$	c #0483EC",
"s$	c #0080ED",
"t$	c #0081EB",
"u$	c #0081ED",
"                                                                                                ",
"                                                                                                ",
"                                                                                                ",
"                                        . + + @ @ # $ %                                         ",
"                                & * = + @ @ # # - % ; ; > > , '                                 ",
"                            = + @ @ # ) ! ~ { ] ] ^ / ( _ ' : < < [                             ",
"                          @ # # } | 1 2 3 4 4 4 5 6 6 6 7 8 9 0 a b b                           ",
"                      c # - d e f g g g h h i j k l m m n o o p q r s t u                       ",
"                    % ; v w x y y y y z A B C D E F G H I I J J K L M N O O                     ",
"                  > > P Q R S T T T U V W X Y Y Y Y Z `  .....+.+.+.@.#.$.%.%.                  ",
"                &.*.=.-.;.;.>.>.>.>.,.'.).Y Y Y Y Y Y Z !.~.~.{.{.{.{.].^./.(._.                ",
"              ' < :.<.[.[.}.|.|.|.1.1.2.Y Y Y Y Y Y Y Y 3.4.5.5.6.6.6.6.7.8.9.0.a.              ",
"              b.c.d.e.f.f.g.g.g.g.h.i.j.Y Y Y Y Y Y Y Y k.l.m.m.n.n.o.o.o.o.p.q.r.              ",
"            a b s.t.t.t.t.u.v.v.w.w.x.y.Y Y Y Y Y Y Y Y z.A.B.B.C.C.C.D.D.E.F.G.H.I.            ",
"          b J.K.q L.M.M.N.N.O.O.P.P.P.Q.R.Y Y Y Y Y Y Y S.T.U.U.U.V.W.W.W.X.X.Y.Z.`.`.          ",
"           +.+++@+#+$+$+%+%+%+&+&+*+=+M -+Y Y Y Y Y Y ;+>+,+,+'+'+'+)+)+!+~+{+{+]+^+/+          ",
"        (+_+:+<+<+[+[+}+}+|+1+2+2+3+3+3+4+5+Y Y Y Y 6+7+8+9+0+0+0+a+b+b+c+c+d+e+e+f+g+h+        ",
"        i+j+k+l+l+m+m+n+n+o+o+o+p+q+q+q+r+s+t+u+v+w+x+y+z+A+B+B+C+C+C+D+D+E+E+F+F+G+H+I+        ",
"        %.J+K+L+L+L+M+M+N+N+O+O+P+P+Q+R+S+S+T+U+V+T+W+W+W+X+X+Y+Z+Z+Z+`+`+ @ @.@.@+@@@#@        ",
"        (.$@%@%@&@*@=@=@-@-@-@-@;@;@;@>@>@,@'@)@)@!@!@~@~@{@{@]@]@^@/@/@/@(@_@_@:@<@[@}@        ",
"      |@1@2@3@4@4@5@5@6@6@7@7@8@8@9@0@a@a@b@b@c@c@c@c@d@e@e@f@f@g@g@h@h@i@j@j@j@k@l@m@n@o@      ",
"      a.a.p@q@r@s@t@t@u@u@v@v@v@v@w@Y Y Y Y Y Y Y Y Y x@y@y@z@z@A@B@C@C@D@D@D@E@F@G@H@I@I@      ",
"      r.J@H.H.K@L@M@N@O@P@P@Q@Q@R@S@Y Y Y Y Y Y Y Y Y T@U@V@V@W@X@Y@Y@Z@Z@Z@`@ #.#+#@#####      ",
"      H.I.I.$#%#`.&#*#=#-#;#>#>#,#'#Y Y Y Y Y Y Y Y Y )#!#~#~#{#]#^#^#/#(#_#:#@###<#[#[#}#      ",
"      %#`.`.^+^+/+|#1#1#2#3#4#5#6#7#8#9#0#Y Y Y Y Y Y a#b#c#c#d#e#f#g#h###<#[#[#i#}#j#j#k#      ",
"      l#^+/+|#1#1#g+g+m#H+I+I+n#o#p#q#r#s#Y Y Y Y Y Y t#u#v#w#:#x###[#[#i#}#j#j#k#k#k#y#y#      ",
"      1#1#g+g+m#H+I+I+z#z##@A#A#}@B#C#C#D#Y Y Y Y Y Y E#####[#[#[#}#}#j#F#k#k#y#y#G#H#I#I#      ",
"      g+H+H+I+J#z#z##@A#}@}@C#C#K#n@L#L#M#Y Y Y Y Y Y $#[#}#}#j#F#k#k#N#y#G#G#I#I#O#P#P#Q#      ",
"        z#z##@A#}@}@C#C#K#n@L#L#H@I@I@@#E#Y Y Y Y Y Y R#j#k#k#N#y#y#G#H#I#I#P#P#Q#S#T#T#        ",
"        }@}@B#C#C#n@n@L#L#I@I@+#@#####[#$#Y Y Y Y Y Y U#y#y#G#H#I#I#P#P#Q#S#T#T#V#W#X#X#        ",
"        C#K#n@L#L#I@I@+#@#####[#[#[#}#}#R#Y Y Y Y Y Y /+I#I#O#P#Q#Q#T#T#T#W#W#X#Y#Z#Z#`#        ",
"         $I@I@+#@#@###<#[#[#}#}#j#F#k#k#.$Y Y Y Y Y Y +$P#Q#S#T#T#W#W#X#Y#Z#Z#`#`#@$#$$$        ",
"          @#####[#[#i#}#j#j#k#k#N#y#y#G#/+Y Y Y Y Y Y %$T#W#W#X#Y#Z#Z#&$`#`#@$#$$$$$*$          ",
"          <#i#}#j#j#F#k#k#y#y#G#H#I#I#P#+$Y Y Y Y Y Y m#X#Y#Z#Z#`#`#@$#$$$$$*$*$*$*$=$          ",
"            F#k#k#y#y#G#G#I#I#O#P#Q#Q#S#%$Y Y Y Y Y Y -$`#`#@$#$$$$$*$*$*$*$*$*$*$*$            ",
"              G#G#I#I#I#P#P#Q#S#T#;$m#m#R#Y Y Y Y Y Y /+>$>$O#*$*$*$*$*$*$*$*$*$*$              ",
"              I#P#P#Q#S#T#T#W#W#X#I+Y Y Y Y Y Y Y Y Y Y Y Y >$*$*$*$*$*$*$*$*$*$,$              ",
"                T#T#V#W#W#X#Y#Z#Z#'$Y Y Y Y Y Y Y Y Y Y Y Y )$!$*$*$*$*$*$*$*$*$                ",
"                  X#Y#Z#Z#`#`#@$~${$Y Y Y Y Y Y Y Y Y Y Y Y ]$^$/$*$*$*$*$*$*$                  ",
"                    ($@$@$#$$$_$:$<$[$}$|$1$2$3$4$3$2$1$|$}$5$6$:$*$*$*$*$*$                    ",
"                      $$*$*$*$*$7$8$9$0$a$b$c$d$e$d$c$b$a$0$9$8$f$*$*$*$*$                      ",
"                          *$*$*$*$f$g$6$h$i$j$k$l$k$j$i$h$m$n$o$*$*$*$                          ",
"                            =$*$*$*$*$*$p$q$n$7$7$n$/$r$o$*$*$*$*$,$                            ",
"                                s$t$*$*$*$*$*$*$*$*$*$*$*$*$*$t$                                ",
"                                        t$*$u$*$*$t$t$s$                                        ",
"                                                                                                ",
"                                                                                                ",
"                                                                                                "};
